<svg width="150" height="47" viewBox="0 0 150 47" fill="none" xmlns="http://www.w3.org/2000/svg">
<path d="M14.8612 45.9303C15.367 40.9317 20.2598 37.478 24.6427 32.8412C29.0256 28.2044 24.9306 19.6228 22.9331 15.2584C20.9356 10.8941 19.1341 12.7691 19.52 14.3915C19.9059 16.014 20.3338 17.2527 20.3338 21.0683C20.3338 24.8123 20.1918 27.0552 19.1341 30.7216C18.4183 33.2468 15.9049 31.4156 16.3988 28.6021C16.6927 26.908 17.9204 21.4879 16.3668 21.301C14.3793 21.0604 13.8114 24.2695 13.0376 26.1564C12.0179 28.6418 9.37456 31.7118 8.22485 33.9109C7.07514 36.11 5.83945 40.2 10.1824 44.63C14.5253 49.06 14.8612 45.9303 14.8612 45.9303Z" fill="#A1B059"/>
<path d="M11.731 1.0749C11.2252 6.07354 6.33241 9.52527 1.94952 14.162C-2.43337 18.7988 1.66359 27.3824 3.65909 31.7448C5.65458 36.1072 7.45813 34.2362 7.07222 32.6137C6.68632 30.9912 6.25843 29.7505 6.25843 25.9349C6.25843 22.1909 6.40239 19.9501 7.45813 16.2836C8.17394 13.7524 10.6893 15.5837 10.1994 18.3972C9.90551 20.0932 8.67582 25.5134 10.2314 25.7003C12.2189 25.9389 12.7848 22.7297 13.5586 20.8448C14.5783 18.3574 17.2217 15.2894 18.3734 13.0903C19.5251 10.8912 20.7588 6.79928 16.4159 2.36929C12.073 -2.06069 11.731 1.0749 11.731 1.0749Z" fill="#A1B059"/>
<path d="M76.1328 22.5988C76.1328 22.221 75.9329 22.044 75.601 22.044H75.531C75.2658 22.044 75.0116 21.9393 74.8241 21.7528C74.6366 21.5664 74.5312 21.3135 74.5312 21.0499V20.5528H76.2568C76.4574 20.552 76.6561 20.5907 76.8416 20.6666C77.027 20.7426 77.1955 20.8543 77.3374 20.9954C77.4792 21.1364 77.5915 21.3039 77.6679 21.4884C77.7443 21.6728 77.7832 21.8704 77.7824 22.0699V28.9017C77.7824 29.6832 77.6824 30.8185 77.6824 30.8901H77.7324C77.7824 30.7628 78.5942 29.5778 79.1021 28.9017L85.3625 20.5508H87.0361V31.1963C87.0254 31.2695 87.0316 31.3442 87.0543 31.4147C87.0769 31.4852 87.1155 31.5497 87.1669 31.6031C87.2184 31.6566 87.2814 31.6977 87.3513 31.7233C87.4211 31.749 87.4959 31.7584 87.5699 31.751H88.6097V32.2481C88.6097 32.5118 88.5043 32.7646 88.3168 32.9511C88.1294 33.1375 87.8751 33.2423 87.6099 33.2423H86.9061C85.8164 33.2423 85.3585 32.7869 85.3585 31.7291V24.8674C85.3657 24.2101 85.4085 23.5537 85.4865 22.901H85.4365C85.3845 23.0024 84.5727 24.1874 84.0668 24.8674L77.7824 33.2383H76.1348L76.1328 22.5988Z" fill="#A1B059"/>
<path d="M90.963 32.5761C90.9636 32.3759 91.025 32.1804 91.1392 32.0155C91.2533 31.8505 91.4149 31.7237 91.6028 31.6516C93.8023 30.7886 94.3081 25.615 94.3081 23.0262V22.044H93.6803C93.4152 22.044 93.1609 21.9392 92.9734 21.7528C92.7859 21.5664 92.6806 21.3135 92.6806 21.0498V20.5527H100.159C100.362 20.5525 100.563 20.5921 100.751 20.6693C100.939 20.7466 101.11 20.8599 101.254 21.0029C101.397 21.1459 101.511 21.3156 101.589 21.5025C101.667 21.6893 101.707 21.8895 101.706 22.0917V31.1962C101.696 31.2715 101.703 31.3481 101.728 31.42C101.752 31.4919 101.793 31.5573 101.847 31.611C101.901 31.6647 101.967 31.7053 102.039 31.7295C102.111 31.7538 102.188 31.7612 102.264 31.751H103.328V32.2481C103.328 32.5117 103.223 32.7646 103.035 32.951C102.848 33.1375 102.593 33.2422 102.328 33.2422H101.528C101.118 33.2422 100.724 33.0801 100.434 32.7915C100.144 32.5029 99.9807 32.1114 99.9807 31.7033V22.5987C99.981 22.526 99.9668 22.4539 99.939 22.3866C99.9112 22.3193 99.8703 22.2581 99.8186 22.2066C99.767 22.155 99.7056 22.1141 99.638 22.0862C99.5705 22.0583 99.498 22.044 99.4249 22.044H95.9777V23.0521C95.9777 25.6488 95.5478 33.3377 90.959 33.3377L90.963 32.5761Z" fill="#A1B059"/>
<path d="M121.647 22.5988C121.647 22.221 121.447 22.0441 121.115 22.0441H121.045C120.78 22.0441 120.525 21.9393 120.338 21.7529C120.15 21.5665 120.045 21.3136 120.045 21.0499V20.5528H121.772C121.972 20.5528 122.17 20.592 122.354 20.6681C122.539 20.7441 122.707 20.8556 122.848 20.9961C122.989 21.1367 123.101 21.3035 123.177 21.4871C123.253 21.6706 123.292 21.8673 123.292 22.066V28.8978C123.292 29.6792 123.192 30.8146 123.192 30.8862H123.242C123.292 30.7589 124.104 29.5739 124.612 28.8978L130.872 20.5469H132.546V31.1963C132.535 31.2696 132.541 31.3443 132.564 31.4148C132.587 31.4853 132.625 31.5497 132.677 31.6032C132.728 31.6567 132.791 31.6978 132.861 31.7234C132.931 31.749 133.006 31.7585 133.08 31.7511H134.119V32.2482C134.119 32.5118 134.014 32.7647 133.827 32.9511C133.639 33.1376 133.385 33.2423 133.12 33.2423H132.416C131.326 33.2423 130.868 32.787 130.868 31.7292V24.8675C130.875 24.2102 130.918 23.5538 130.996 22.9011H130.946C130.894 23.0025 130.084 24.1875 129.577 24.8675L123.288 33.2383H121.641L121.647 22.5988Z" fill="#A1B059"/>
<path d="M146.58 24.4891H142.929C140.747 24.4891 139.076 23.0774 139.076 20.759C139.076 18.4406 140.567 17.0766 142.929 17.0766H146.58V24.4891ZM142.547 15.5078C139.642 15.5078 137.22 17.8222 137.224 20.7113C137.224 24.4592 140.545 25.517 141.153 25.5667L141.753 25.6165C141.573 25.7759 141.417 25.96 141.289 26.1632C138.29 30.794 138.062 34.3869 132.186 34.3869C131.586 34.3869 131.43 34.7627 131.43 34.9636C131.43 35.4567 131.83 35.6177 132.321 35.6237C137.92 35.6873 139.306 33.4087 142.919 27.0461C143.423 26.1871 143.735 26.0519 144.648 26.0519H146.572V33.2377H148.345V17.0766H148.999C149.264 17.0766 149.519 16.9719 149.706 16.7854C149.894 16.599 149.999 16.3461 149.999 16.0824V15.5078H142.547Z" fill="#A1B059"/>
<path d="M54.9757 15.5078V27.7678C54.9757 32.7724 57.901 34.4227 59.7985 34.4227C60.3644 34.4227 60.8242 34.4545 60.8242 35.0192V35.0292C60.8242 35.5939 60.3644 35.6257 59.7985 35.6257C57.649 35.6257 53.2002 34.0648 53.2002 27.7837V20.5562C53.2002 19.6236 53.3261 18.369 53.3261 18.369L53.2762 18.1702C53.2762 18.1702 52.3884 19.8821 51.7885 20.755L43.6506 33.2377H41.927V17.6313C41.9368 17.5562 41.9292 17.4798 41.9046 17.408C41.88 17.3363 41.8392 17.2711 41.7853 17.2175C41.7314 17.1639 41.6659 17.1233 41.5937 17.0989C41.5216 17.0745 41.4447 17.0668 41.3692 17.0766H41.2732C41.008 17.0766 40.7537 16.9719 40.5663 16.7854C40.3788 16.599 40.2734 16.3461 40.2734 16.0824V15.5078H42.149C42.3519 15.5078 42.5529 15.5476 42.7404 15.6248C42.928 15.702 43.0984 15.8153 43.2419 15.958C43.3854 16.1007 43.4992 16.2701 43.5769 16.4566C43.6546 16.6431 43.6946 16.8429 43.6946 17.0448V28.1893C43.6946 29.1219 43.5426 30.46 43.5426 30.46H43.5946C43.5946 30.46 44.5564 28.7978 45.1662 27.9408L53.2502 15.5078H54.9757Z" fill="#A1B059"/>
<path d="M110.459 23.0521V25.438C110.459 30.9417 107.238 35.6401 102.513 35.6401C101.865 35.6401 101.289 35.6799 101.289 35.0436V35.0317C101.289 34.5207 101.657 34.4352 102.171 34.4352C105.21 34.4352 108.785 30.8443 108.785 25.4281V22.044H108.157C107.892 22.044 107.638 21.9392 107.45 21.7528C107.263 21.5664 107.158 21.3135 107.158 21.0498V20.5527H114.636C114.839 20.5527 115.04 20.5926 115.228 20.6699C115.415 20.7473 115.586 20.8607 115.729 21.0036C115.873 21.1465 115.987 21.3162 116.064 21.5029C116.142 21.6896 116.182 21.8897 116.181 22.0917V31.1962C116.171 31.2716 116.179 31.3482 116.204 31.4201C116.228 31.492 116.269 31.5573 116.324 31.611C116.378 31.6646 116.444 31.7051 116.516 31.7294C116.588 31.7537 116.665 31.7611 116.741 31.751H117.805V32.2481C117.805 32.5117 117.7 32.7646 117.512 32.951C117.325 33.1375 117.07 33.2422 116.805 33.2422H116.005C115.802 33.2425 115.601 33.2028 115.413 33.1256C115.225 33.0484 115.054 32.935 114.91 32.792C114.767 32.6491 114.653 32.4793 114.575 32.2925C114.497 32.1057 114.457 31.9054 114.458 31.7032V22.5987C114.458 22.4516 114.399 22.3105 114.294 22.2065C114.19 22.1024 114.048 22.044 113.9 22.044H110.459V23.0521Z" fill="#A1B059"/>
<path d="M68.9504 31.7748H62.4081C64.5375 28.9772 64.6075 24.5909 64.6075 22.7498V22.0439H68.3846C68.4601 22.0341 68.537 22.0418 68.6091 22.0662C68.6813 22.0906 68.7468 22.1312 68.8007 22.1848C68.8546 22.2384 68.8954 22.3036 68.92 22.3753C68.9446 22.4471 68.9522 22.5235 68.9424 22.5986L68.9504 31.7748ZM71.1498 31.7748H70.668V22.0956C70.6682 21.8936 70.6285 21.6935 70.5509 21.5068C70.4733 21.3201 70.3595 21.1504 70.216 21.0075C70.0724 20.8646 69.902 20.7512 69.7143 20.6738C69.5267 20.5965 69.3255 20.5566 69.1224 20.5566H61.3443V21.0537C61.3443 21.3174 61.4497 21.5703 61.6372 21.7567C61.8246 21.9431 62.0789 22.0479 62.3441 22.0479H62.9439V22.7796C62.9439 24.4438 62.9439 29.007 60.5605 31.7787H60.3866C59.5868 31.7787 59.1409 32.0273 58.9609 32.5582C59.7127 32.9558 60.2946 33.2421 61.0464 33.2421H70.502C70.5777 33.232 70.6547 33.2393 70.727 33.2636C70.7994 33.2879 70.8651 33.3284 70.9191 33.3821C70.9731 33.4358 71.0139 33.5012 71.0383 33.5731C71.0627 33.6451 71.0701 33.7216 71.0599 33.7969V35.6361H71.6877C71.9529 35.6361 72.2072 35.5313 72.3946 35.3449C72.5821 35.1585 72.6875 34.9056 72.6875 34.6419V33.2382C72.6875 32.2281 72.2556 31.7748 71.1658 31.7748" fill="#A1B059"/>
</svg>
